<svg width="72" height="18" viewBox="0 0 72 18" fill="none" xmlns="http://www.w3.org/2000/svg">
<g clip-path="url(#clip0_31_4284)">
<path d="M37.1519 17.56H34.1797V5.37318H37.0753V6.99975C37.8453 5.73388 39.2588 4.97731 40.7653 5.02268C43.8141 5.02268 45.2753 7.17556 45.2753 9.85248V17.5611H42.3031V10.3538C42.3031 8.85317 41.6108 7.65083 39.7408 7.65083C38.0486 7.65083 37.1531 8.9269 37.1531 10.5285V17.56H37.1519Z" fill="#8B4AFF"/>
<path d="M65.6453 17.9105C62.6731 17.9105 60.9297 15.7576 60.9297 13.0557V5.37207H63.9019V12.5294C63.9019 14.0301 64.6197 15.3073 66.413 15.3073C68.2063 15.3073 69.0275 14.1821 69.0275 12.5793V5.37207H71.9997V15.3311C71.9997 16.3315 71.9486 17.1085 71.9997 17.5588H69.1808C69.1553 17.1085 69.1553 16.6571 69.1808 16.2079C68.5664 17.3093 67.1053 17.9093 65.6441 17.9093" fill="#8B4AFF"/>
<path d="M14.3396 5.02137C12.681 4.93063 11.113 5.76433 10.2907 7.17425C9.60194 5.78475 8.12686 4.9363 6.54957 5.02137C5.06404 4.9828 3.66562 5.70421 2.85956 6.92357V5.373H0L0.0150992 17.5598H2.96409V10.3276C2.96409 8.77586 3.96412 7.62456 5.55186 7.62456C7.24414 7.62456 7.96077 8.72595 7.96077 10.1268V17.5598H10.8796V10.3276C10.7843 8.93126 11.8645 7.72438 13.2943 7.63023C13.3523 7.62683 13.4093 7.62456 13.4673 7.62456C15.1329 7.62456 15.8762 8.69986 15.8762 10.1268V17.5598H18.7463V9.64926C18.7463 6.42108 16.594 5.02024 14.3384 5.02024" fill="#8B4AFF"/>
<path d="M59.1549 0L56.1304 0.965278V6.79892C55.7459 6.02306 54.6449 5.04758 52.4659 5.04758C48.9525 5.04758 46.5215 7.92526 46.5215 11.4268C46.5215 15.1053 48.9304 17.8605 52.517 17.8605C53.9956 17.9251 55.3952 17.2083 56.1803 15.9832V17.5599H59.1526C59.127 17.3603 59.1526 16.4347 59.1526 15.3322V0H59.1549ZM52.8515 15.3072C50.8271 15.3072 49.4949 13.7555 49.4949 11.4279C49.4949 9.10038 50.9305 7.62127 52.8771 7.62127C54.8237 7.62127 56.1571 9.07316 56.1571 11.4007C56.1571 13.7283 54.7993 15.3049 52.8515 15.3049" fill="#8B4AFF"/>
<path d="M26.4674 5.06348C22.7518 5.06348 20.0107 7.79144 20.0107 11.5198C20.0107 15.2482 22.753 18.0012 26.4674 18.0012C30.1818 18.0012 32.9508 15.2732 32.9508 11.5198C32.9508 7.76648 30.2085 5.06348 26.4674 5.06348ZM29.6766 12.7369C29.6649 13.3336 29.2631 13.8553 28.6789 14.0323L23.4452 15.7054C23.3802 15.7258 23.3105 15.6906 23.2896 15.6271C23.2861 15.6146 23.2838 15.6021 23.2838 15.5897V10.3243C23.2942 9.72766 23.6973 9.20476 24.2815 9.02894L29.5163 7.35814C29.5813 7.33772 29.651 7.37288 29.6719 7.4364C29.6754 7.44888 29.6777 7.46136 29.6777 7.47384V12.7381L29.6766 12.7369Z" fill="#8B4AFF"/>
</g>
<defs>
<clipPath id="clip0_31_4284">
<rect width="72" height="18" fill="white"/>
</clipPath>
</defs>
</svg>
